<?xml version="1.0" encoding="utf-8"?>
<!-- Generator: Adobe Illustrator 21.1.0, SVG Export Plug-In . SVG Version: 6.00 Build 0)  -->
<svg version="1.1" id="Capa_1" xmlns="http://www.w3.org/2000/svg" xmlns:xlink="http://www.w3.org/1999/xlink" x="0px" y="0px"
	 viewBox="0 0 18 18" style="enable-background:new 0 0 18 18;" xml:space="preserve">
<g>
	<g>
		<path d="M16.8,4.5C16,3.1,14.9,2,13.5,1.2C12.1,0.4,10.6,0,9,0C7.4,0,5.9,0.4,4.5,1.2C3.1,2,2,3.1,1.2,4.5C0.4,5.9,0,7.4,0,9
			c0,1.6,0.4,3.1,1.2,4.5C2,14.9,3.1,16,4.5,16.8C5.9,17.6,7.4,18,9,18s3.1-0.4,4.5-1.2c1.4-0.8,2.5-1.9,3.3-3.3
			C17.6,12.1,18,10.6,18,9C18,7.4,17.6,5.9,16.8,4.5z M15.9,11.9c-0.4,0.9-0.9,1.7-1.6,2.4c-0.7,0.7-1.5,1.2-2.4,1.6
			C11,16.3,10,16.5,9,16.5s-2-0.2-2.9-0.6c-0.9-0.4-1.7-0.9-2.4-1.6c-0.7-0.7-1.2-1.5-1.6-2.4C1.7,11,1.5,10,1.5,9
			c0-1,0.2-2,0.6-2.9C2.5,5.2,3,4.4,3.7,3.7C4.4,3,5.2,2.5,6.1,2.1C7,1.7,8,1.5,9,1.5c1,0,2,0.2,2.9,0.6c0.9,0.4,1.7,0.9,2.4,1.6
			c0.7,0.7,1.2,1.5,1.6,2.4C16.3,7,16.5,8,16.5,9C16.5,10,16.3,11,15.9,11.9z"/>
		<path d="M9,3C7.3,3,5.9,3.6,4.8,4.8C3.6,5.9,3,7.3,3,9c0,1.7,0.6,3.1,1.8,4.2C5.9,14.4,7.3,15,9,15s3.1-0.6,4.2-1.8
			C14.4,12.1,15,10.7,15,9s-0.6-3.1-1.8-4.2C12.1,3.6,10.7,3,9,3z M12.2,12.2c-0.9,0.9-1.9,1.3-3.2,1.3s-2.3-0.4-3.2-1.3
			C4.9,11.3,4.5,10.2,4.5,9c0-1.2,0.4-2.3,1.3-3.2C6.7,4.9,7.8,4.5,9,4.5c1.2,0,2.3,0.4,3.2,1.3c0.9,0.9,1.3,1.9,1.3,3.2
			C13.5,10.2,13.1,11.3,12.2,12.2z"/>
		<path d="M9,6C8.2,6,7.5,6.3,6.9,6.9C6.3,7.5,6,8.2,6,9c0,0.8,0.3,1.5,0.9,2.1C7.5,11.7,8.2,12,9,12c0.8,0,1.5-0.3,2.1-0.9
			C11.7,10.5,12,9.8,12,9c0-0.8-0.3-1.5-0.9-2.1C10.5,6.3,9.8,6,9,6z"/>
	</g>
</g>
</svg>
